<svg width="96" height="42" viewBox="0 0 96 42" fill="none" xmlns="http://www.w3.org/2000/svg">
<path d="M6.108 33.908H7.272V37.796C7.176 37.828 7.036 37.864 6.852 37.904C6.676 37.944 6.468 37.984 6.228 38.024C5.996 38.064 5.74 38.096 5.46 38.12C5.18 38.152 4.896 38.168 4.608 38.168C4.024 38.168 3.492 38.072 3.012 37.88C2.532 37.688 2.12 37.408 1.776 37.04C1.432 36.672 1.164 36.22 0.972 35.684C0.788 35.148 0.696 34.532 0.696 33.836C0.696 33.14 0.8 32.524 1.008 31.988C1.224 31.444 1.512 30.988 1.872 30.62C2.232 30.252 2.652 29.972 3.132 29.78C3.62 29.588 4.14 29.492 4.692 29.492C5.068 29.492 5.4 29.516 5.688 29.564C5.984 29.612 6.236 29.668 6.444 29.732C6.652 29.796 6.82 29.86 6.948 29.924C7.084 29.988 7.176 30.036 7.224 30.068L6.852 31.04C6.62 30.888 6.312 30.764 5.928 30.668C5.544 30.564 5.152 30.512 4.752 30.512C4.328 30.512 3.94 30.588 3.588 30.74C3.244 30.892 2.948 31.112 2.7 31.4C2.46 31.688 2.272 32.04 2.136 32.456C2 32.864 1.932 33.324 1.932 33.836C1.932 34.332 1.988 34.784 2.1 35.192C2.22 35.6 2.396 35.952 2.628 36.248C2.868 36.536 3.16 36.76 3.504 36.92C3.856 37.08 4.268 37.16 4.74 37.16C5.076 37.16 5.36 37.144 5.592 37.112C5.832 37.072 6.004 37.036 6.108 37.004V33.908ZM26.9025 34.52C27.0305 34.68 27.1905 34.892 27.3825 35.156C27.5825 35.412 27.7865 35.7 27.9945 36.02C28.2025 36.332 28.4065 36.66 28.6065 37.004C28.8145 37.348 28.9905 37.68 29.1345 38H27.8625C27.7025 37.696 27.5265 37.388 27.3345 37.076C27.1505 36.764 26.9625 36.468 26.7705 36.188C26.5785 35.9 26.3865 35.632 26.1945 35.384C26.0105 35.136 25.8425 34.92 25.6905 34.736C25.5865 34.744 25.4785 34.748 25.3665 34.748C25.2625 34.748 25.1545 34.748 25.0425 34.748H23.9985V38H22.8345V29.804C23.1625 29.724 23.5265 29.672 23.9265 29.648C24.3345 29.616 24.7065 29.6 25.0425 29.6C26.2105 29.6 27.0985 29.82 27.7065 30.26C28.3225 30.7 28.6305 31.356 28.6305 32.228C28.6305 32.78 28.4825 33.252 28.1865 33.644C27.8985 34.036 27.4705 34.328 26.9025 34.52ZM25.1385 30.62C24.6425 30.62 24.2625 30.632 23.9985 30.656V33.788H24.8265C25.2265 33.788 25.5865 33.768 25.9065 33.728C26.2265 33.688 26.4945 33.612 26.7105 33.5C26.9345 33.388 27.1065 33.232 27.2265 33.032C27.3465 32.824 27.4065 32.552 27.4065 32.216C27.4065 31.904 27.3465 31.644 27.2265 31.436C27.1065 31.228 26.9425 31.064 26.7345 30.944C26.5345 30.824 26.2945 30.74 26.0145 30.692C25.7425 30.644 25.4505 30.62 25.1385 30.62ZM43.6565 33.836C43.6565 33.124 43.7605 32.496 43.9685 31.952C44.1845 31.408 44.4725 30.956 44.8325 30.596C45.2005 30.228 45.6245 29.952 46.1045 29.768C46.5925 29.584 47.1085 29.492 47.6525 29.492C48.1885 29.492 48.6925 29.584 49.1645 29.768C49.6445 29.952 50.0645 30.228 50.4245 30.596C50.7845 30.956 51.0685 31.408 51.2765 31.952C51.4925 32.496 51.6005 33.124 51.6005 33.836C51.6005 34.548 51.4925 35.176 51.2765 35.72C51.0685 36.264 50.7845 36.72 50.4245 37.088C50.0645 37.448 49.6445 37.72 49.1645 37.904C48.6925 38.088 48.1885 38.18 47.6525 38.18C47.1085 38.18 46.5925 38.088 46.1045 37.904C45.6245 37.72 45.2005 37.448 44.8325 37.088C44.4725 36.72 44.1845 36.264 43.9685 35.72C43.7605 35.176 43.6565 34.548 43.6565 33.836ZM44.8805 33.836C44.8805 34.34 44.9445 34.8 45.0725 35.216C45.2005 35.624 45.3805 35.972 45.6125 36.26C45.8525 36.548 46.1405 36.772 46.4765 36.932C46.8205 37.084 47.2045 37.16 47.6285 37.16C48.0525 37.16 48.4325 37.084 48.7685 36.932C49.1045 36.772 49.3885 36.548 49.6205 36.26C49.8605 35.972 50.0445 35.624 50.1725 35.216C50.3005 34.8 50.3645 34.34 50.3645 33.836C50.3645 33.332 50.3005 32.876 50.1725 32.468C50.0445 32.052 49.8605 31.7 49.6205 31.412C49.3885 31.124 49.1045 30.904 48.7685 30.752C48.4325 30.592 48.0525 30.512 47.6285 30.512C47.2045 30.512 46.8205 30.592 46.4765 30.752C46.1405 30.904 45.8525 31.124 45.6125 31.412C45.3805 31.7 45.2005 32.052 45.0725 32.468C44.9445 32.876 44.8805 33.332 44.8805 33.836ZM70.1683 38.18C69.6243 38.18 69.1523 38.096 68.7523 37.928C68.3523 37.76 68.0243 37.532 67.7683 37.244C67.5123 36.948 67.3203 36.6 67.1923 36.2C67.0723 35.8 67.0123 35.368 67.0123 34.904V29.684H68.1763V34.772C68.1763 35.604 68.3603 36.208 68.7283 36.584C69.0963 36.96 69.5763 37.148 70.1683 37.148C70.4643 37.148 70.7323 37.104 70.9723 37.016C71.2203 36.92 71.4323 36.776 71.6083 36.584C71.7843 36.392 71.9203 36.148 72.0163 35.852C72.1123 35.548 72.1603 35.188 72.1603 34.772V29.684H73.3243V34.904C73.3243 35.368 73.2603 35.8 73.1323 36.2C73.0123 36.6 72.8203 36.948 72.5563 37.244C72.3003 37.532 71.9723 37.76 71.5723 37.928C71.1803 38.096 70.7123 38.18 70.1683 38.18ZM91.282 29.6C92.45 29.6 93.346 29.824 93.97 30.272C94.602 30.712 94.918 31.372 94.918 32.252C94.918 32.732 94.83 33.144 94.654 33.488C94.486 33.824 94.238 34.1 93.91 34.316C93.59 34.524 93.198 34.676 92.734 34.772C92.27 34.868 91.746 34.916 91.162 34.916H90.238V38H89.074V29.804C89.402 29.724 89.766 29.672 90.166 29.648C90.574 29.616 90.946 29.6 91.282 29.6ZM91.378 30.62C90.882 30.62 90.502 30.632 90.238 30.656V33.92H91.114C91.514 33.92 91.874 33.896 92.194 33.848C92.514 33.792 92.782 33.704 92.998 33.584C93.222 33.456 93.394 33.284 93.514 33.068C93.634 32.852 93.694 32.576 93.694 32.24C93.694 31.92 93.63 31.656 93.502 31.448C93.382 31.24 93.214 31.076 92.998 30.956C92.79 30.828 92.546 30.74 92.266 30.692C91.986 30.644 91.69 30.62 91.378 30.62Z" fill="white"/>
<path d="M27.86 18.32V21H18.6V7.14H21.72V18.32H27.86ZM29.8695 21V7.14H39.2295V9.76H32.9895V12.48H38.5295V15.04H32.9895V18.38H39.6895V21H29.8695ZM46.3333 21C45.7866 19.84 45.2466 18.6333 44.7133 17.38C44.1799 16.1267 43.6733 14.8867 43.1933 13.66C42.7133 12.4333 42.2666 11.26 41.8533 10.14C41.4533 9.02 41.1066 8.02 40.8133 7.14H44.2533C44.5199 7.94 44.8066 8.80667 45.1133 9.74C45.4333 10.66 45.7533 11.58 46.0733 12.5C46.4066 13.42 46.7266 14.3 47.0333 15.14C47.3399 15.98 47.6266 16.7067 47.8933 17.32C48.1466 16.7067 48.4266 15.98 48.7333 15.14C49.0533 14.3 49.3733 13.42 49.6933 12.5C50.0266 11.58 50.3466 10.66 50.6533 9.74C50.9733 8.80667 51.2666 7.94 51.5333 7.14H54.8533C54.5466 8.02 54.1933 9.02 53.7933 10.14C53.3933 11.26 52.9533 12.4333 52.4733 13.66C51.9933 14.8867 51.4866 16.1267 50.9533 17.38C50.4199 18.6333 49.8799 19.84 49.3333 21H46.3333ZM56.6469 21V7.14H66.0069V9.76H59.7669V12.48H65.3069V15.04H59.7669V18.38H66.4669V21H56.6469ZM78.0358 18.32V21H68.7758V7.14H71.8958V18.32H78.0358Z" fill="white"/>
</svg>
